<svg width="28" height="28" viewBox="0 0 28 28" fill="none" xmlns="http://www.w3.org/2000/svg">
<mask id="mask0_146_210" style="mask-type:alpha" maskUnits="userSpaceOnUse" x="1" y="1" width="26" height="26">
<path d="M25.6667 19.8333H2.33337M2.33337 6.70831H12.8334M10.5 2.33331H4.66671C3.56654 2.33331 3.01704 2.33331 2.67521 2.67515C2.33337 3.01698 2.33337 3.56648 2.33337 4.66665V23.3333C2.33337 24.4335 2.33337 24.983 2.67521 25.3248C3.01704 25.6666 3.56654 25.6666 4.66671 25.6666H7.00004L9.33337 23.3333L11.6667 25.6666H23.3334C24.4335 25.6666 24.983 25.6666 25.3249 25.3248C25.6667 24.983 25.6667 24.4335 25.6667 23.3333V18.9437C25.6667 16.0317 25.6667 14.5757 24.8034 13.587C23.94 12.5976 22.4975 12.4011 19.6123 12.0079L18.8878 11.9087C16.0026 11.5156 14.5595 11.319 13.6961 10.3296C12.8334 9.3409 12.8334 7.88548 12.8334 4.9729V4.66665C12.8334 3.56648 12.8334 3.01698 12.4915 2.67515C12.1497 2.33331 11.6002 2.33331 10.5 2.33331Z" stroke="white" stroke-linecap="round" stroke-linejoin="round"/>
<path d="M8.75 15.1666C9.7165 15.1666 10.5 14.3831 10.5 13.4166C10.5 12.4501 9.7165 11.6666 8.75 11.6666C7.7835 11.6666 7 12.4501 7 13.4166C7 14.3831 7.7835 15.1666 8.75 15.1666Z" fill="white" stroke="white" stroke-linecap="round" stroke-linejoin="round"/>
</mask>
<g mask="url(#mask0_146_210)">
<path d="M0 0H28V28H0V0Z" fill="#F8F1E9"/>
</g>
</svg>
