<svg width="175" height="217" viewBox="0 0 175 217" fill="none" xmlns="http://www.w3.org/2000/svg">
<path d="M158.375 6.87549H16.625C11.0331 6.87549 6.5 11.422 6.5 17.0303V199.818C6.5 205.426 11.0331 209.972 16.625 209.972H158.375C163.967 209.972 168.5 205.426 168.5 199.818V17.0303C168.5 11.422 163.967 6.87549 158.375 6.87549Z" stroke="#0D0D0D" stroke-width="13"/>
<path d="M6.5 47.4949C6.5 50.1881 7.56674 52.771 9.46555 54.6754C11.3644 56.5798 13.9397 57.6497 16.625 57.6497H158.375C161.06 57.6497 163.636 56.5798 165.534 54.6754C167.433 52.771 168.5 50.1881 168.5 47.4949V17.0303C168.5 14.3371 167.433 11.7542 165.534 9.84977C163.636 7.94537 161.06 6.87549 158.375 6.87549H16.625C13.9397 6.87549 11.3644 7.94537 9.46555 9.84977C7.56674 11.7542 6.5 14.3371 6.5 17.0303V47.4949Z" fill="#81D3D8" stroke="#0D0D0D" stroke-width="13"/>
<path d="M40.5 32.2628C40.5 34.2993 38.859 35.9176 36.875 35.9176C34.891 35.9176 33.25 34.2993 33.25 32.2628C33.25 30.2262 34.891 28.6079 36.875 28.6079C38.859 28.6079 40.5 30.2262 40.5 32.2628Z" stroke="#0D0D0D" stroke-width="13"/>
<path d="M70.875 32.2628C70.875 34.2993 69.234 35.9176 67.25 35.9176C65.266 35.9176 63.625 34.2993 63.625 32.2628C63.625 30.2262 65.266 28.6079 67.25 28.6079C69.234 28.6079 70.875 30.2262 70.875 32.2628Z" stroke="#0D0D0D" stroke-width="13"/>
<path d="M87.5 169.353C107.072 169.353 122.938 153.44 122.938 133.811C122.938 114.182 107.072 98.269 87.5 98.269C67.9284 98.269 52.0625 114.182 52.0625 133.811C52.0625 153.44 67.9284 169.353 87.5 169.353Z" fill="#81D3D8" stroke="#0D0D0D" stroke-width="13"/>
</svg>
