<svg width="399" height="245" viewBox="0 0 399 245" fill="none" xmlns="http://www.w3.org/2000/svg">
<g clip-path="url(#clip0_115_4)">
<path d="M362.652 158.176L379.35 219.633C379.752 221.635 381.227 222.636 383.775 222.636H384.982C386.055 222.503 386.894 221.902 387.497 220.834C388.101 219.767 388.268 218.699 388 217.631L370.9 155.574C369.425 150.236 366.374 145.865 361.747 142.462C357.12 139.059 351.99 137.357 346.357 137.357H323.625C320.809 137.357 319.4 138.758 319.4 141.561C319.4 144.364 320.809 145.765 323.625 145.765H346.357C349.979 145.765 353.331 146.933 356.416 149.268C359.501 151.604 361.579 154.573 362.652 158.176ZM289.225 222.636H353.6C356.55 222.636 358.025 221.235 358.025 218.432C358.025 215.63 356.55 214.228 353.6 214.228H294.053C294.857 207.289 297.271 201.049 301.295 195.511C305.318 189.973 310.482 185.802 316.785 182.999C319.333 182.065 320.071 180.197 318.998 177.394C317.657 174.859 315.779 174.191 313.365 175.392C304.648 179.263 297.741 185.068 292.645 192.808C287.548 200.549 285 209.09 285 218.432C285 221.235 286.408 222.636 289.225 222.636ZM345.15 171.389C342.2 171.389 340.725 172.857 340.725 175.793C340.725 176.994 341.127 177.995 341.932 178.796C342.736 179.596 343.809 179.997 345.15 179.997H353.6C354.941 179.997 356.014 179.596 356.818 178.796C357.623 177.995 358.025 176.994 358.025 175.793C358.025 172.857 356.55 171.389 353.6 171.389H345.15ZM290.633 134.354C288.487 136.223 288.487 138.225 290.633 140.36L376.332 230.043C377.405 230.844 378.411 231.244 379.35 231.244C380.557 231.244 381.562 230.844 382.367 230.043C384.513 227.908 384.513 225.906 382.367 224.037L296.668 134.354C294.522 132.219 292.51 132.219 290.633 134.354Z" fill="#0D0D0D"/>
</g>
<path d="M192.375 20.8755H50.625C45.0331 20.8755 40.5 25.422 40.5 31.0303V213.818C40.5 219.426 45.0331 223.972 50.625 223.972H192.375C197.967 223.972 202.5 219.426 202.5 213.818V31.0303C202.5 25.422 197.967 20.8755 192.375 20.8755Z" stroke="#0D0D0D" stroke-width="13"/>
<path d="M40.5 61.4949C40.5 64.1881 41.5667 66.771 43.4655 68.6754C45.3644 70.5798 47.9397 71.6497 50.625 71.6497H192.375C195.06 71.6497 197.636 70.5798 199.534 68.6754C201.433 66.771 202.5 64.1881 202.5 61.4949V31.0303C202.5 28.3371 201.433 25.7542 199.534 23.8498C197.636 21.9454 195.06 20.8755 192.375 20.8755H50.625C47.9397 20.8755 45.3644 21.9454 43.4655 23.8498C41.5667 25.7542 40.5 28.3371 40.5 31.0303V61.4949Z" fill="#81D3D8" stroke="#0D0D0D" stroke-width="13"/>
<path d="M74.5 46.2628C74.5 48.2993 72.859 49.9176 70.875 49.9176C68.891 49.9176 67.25 48.2993 67.25 46.2628C67.25 44.2262 68.891 42.6079 70.875 42.6079C72.859 42.6079 74.5 44.2262 74.5 46.2628Z" stroke="#0D0D0D" stroke-width="13"/>
<path d="M104.875 46.2628C104.875 48.2993 103.234 49.9176 101.25 49.9176C99.266 49.9176 97.625 48.2993 97.625 46.2628C97.625 44.2262 99.266 42.6079 101.25 42.6079C103.234 42.6079 104.875 44.2262 104.875 46.2628Z" stroke="#0D0D0D" stroke-width="13"/>
<path d="M121.5 183.353C141.072 183.353 156.938 167.44 156.938 147.811C156.938 128.182 141.072 112.269 121.5 112.269C101.928 112.269 86.0625 128.182 86.0625 147.811C86.0625 167.44 101.928 183.353 121.5 183.353Z" fill="#81D3D8" stroke="#0D0D0D" stroke-width="13"/>
<path d="M287.369 83.3497C288.023 87.0047 289.783 90.0782 292.646 92.5703C295.51 95.0623 298.743 96.3083 302.343 96.3083H369.604C373.204 96.3083 376.436 95.0623 379.3 92.5703C382.164 90.0782 383.924 87.0047 384.578 83.3497L398.816 17.5602C399.143 16.0649 398.898 14.6528 398.079 13.3237C397.261 11.9946 396.116 11.247 394.643 11.0809C393.17 10.7486 391.779 10.9978 390.47 11.8285C389.16 12.6592 388.424 13.8221 388.26 15.3173L384.087 36.2504C383.924 35.9181 383.555 35.5443 382.983 35.129C382.41 34.7136 381.96 34.3398 381.632 34.0076C377.705 29.3558 372.959 27.0299 367.395 27.0299C361.83 27.0299 357.085 29.3558 353.157 34.0076C350.866 36.4996 348.656 37.7456 346.529 37.7456C344.401 37.7456 342.11 36.4996 339.656 34.0076C335.728 29.3558 330.982 27.0299 325.418 27.0299C319.69 27.0299 315.026 29.3558 311.426 34.0076C308.971 36.4996 306.68 37.7456 304.552 37.7456C302.425 37.7456 300.134 36.4996 297.679 34.0076C294.406 30.3526 290.56 28.0267 286.141 27.0299L283.686 15.3173C283.359 13.9882 282.541 12.9084 281.232 12.0777C279.922 11.247 278.613 10.9147 277.304 11.0809C275.995 11.247 274.89 12.0362 273.99 13.4483C273.09 14.8605 272.804 16.2311 273.131 17.5602L287.369 83.3497ZM290.314 41.4836C294.242 46.1354 298.988 48.4613 304.552 48.4613C310.116 48.4613 314.862 46.1354 318.79 41.4836C321.081 38.9916 323.29 37.7456 325.418 37.7456C327.545 37.7456 329.836 38.9916 332.291 41.4836C336.873 46.1354 341.619 48.4613 346.529 48.4613C352.257 48.4613 356.921 46.1354 360.521 41.4836C362.976 38.9916 365.267 37.7456 367.395 37.7456C369.522 37.7456 371.813 38.9916 374.268 41.4836C377.05 44.3079 379.669 46.2185 382.123 47.2153L374.759 81.3561C374.268 84.1804 372.55 85.5926 369.604 85.5926H302.343C299.397 85.5926 297.679 84.1804 297.188 81.3561L288.842 39.9884L290.314 41.4836Z" fill="#0D0D0D"/>
<path d="M318.213 62.9734C318.293 60.8334 318.993 59.1834 320.313 58.0234C321.633 56.8634 323.423 56.2834 325.683 56.2834C327.183 56.2834 328.463 56.5434 329.523 57.0634C330.603 57.5834 331.413 58.2934 331.953 59.1934C332.513 60.0934 332.793 61.1034 332.793 62.2234C332.793 63.5434 332.463 64.6234 331.803 65.4634C331.143 66.2834 330.373 66.8434 329.493 67.1434V67.2634C330.633 67.6434 331.533 68.2734 332.193 69.1534C332.853 70.0334 333.183 71.1634 333.183 72.5434C333.183 73.7834 332.893 74.8834 332.313 75.8434C331.753 76.7834 330.923 77.5234 329.823 78.0634C328.743 78.6034 327.453 78.8734 325.953 78.8734C323.553 78.8734 321.633 78.2834 320.193 77.1034C318.773 75.9234 318.023 74.1434 317.943 71.7634H322.923C322.943 72.6434 323.193 73.3434 323.673 73.8634C324.153 74.3634 324.853 74.6134 325.773 74.6134C326.553 74.6134 327.153 74.3934 327.573 73.9534C328.013 73.4934 328.233 72.8934 328.233 72.1534C328.233 71.1934 327.923 70.5034 327.303 70.0834C326.703 69.6434 325.733 69.4234 324.393 69.4234H323.433V65.2534H324.393C325.413 65.2534 326.233 65.0834 326.853 64.7434C327.493 64.3834 327.813 63.7534 327.813 62.8534C327.813 62.1334 327.613 61.5734 327.213 61.1734C326.813 60.7734 326.263 60.5734 325.563 60.5734C324.803 60.5734 324.233 60.8034 323.853 61.2634C323.493 61.7234 323.283 62.2934 323.223 62.9734H318.213ZM337.097 67.4434C337.097 64.0034 337.757 61.2934 339.077 59.3134C340.417 57.3334 342.567 56.3434 345.527 56.3434C348.487 56.3434 350.627 57.3334 351.947 59.3134C353.287 61.2934 353.957 64.0034 353.957 67.4434C353.957 70.9234 353.287 73.6534 351.947 75.6334C350.627 77.6134 348.487 78.6034 345.527 78.6034C342.567 78.6034 340.417 77.6134 339.077 75.6334C337.757 73.6534 337.097 70.9234 337.097 67.4434ZM348.917 67.4434C348.917 65.4234 348.697 63.8734 348.257 62.7934C347.817 61.6934 346.907 61.1434 345.527 61.1434C344.147 61.1434 343.237 61.6934 342.797 62.7934C342.357 63.8734 342.137 65.4234 342.137 67.4434C342.137 68.8034 342.217 69.9334 342.377 70.8334C342.537 71.7134 342.857 72.4334 343.337 72.9934C343.837 73.5334 344.567 73.8034 345.527 73.8034C346.487 73.8034 347.207 73.5334 347.687 72.9934C348.187 72.4334 348.517 71.7134 348.677 70.8334C348.837 69.9334 348.917 68.8034 348.917 67.4434Z" fill="#0D0D0D"/>
<defs>
<clipPath id="clip0_115_4">
<rect width="103" height="99.2918" fill="white" transform="translate(285 131.952)"/>
</clipPath>
</defs>
</svg>
