<svg width="103" height="101" viewBox="0 0 103 101" fill="none" xmlns="http://www.w3.org/2000/svg">
<g clip-path="url(#clip0_30_218)">
<path d="M77.6523 27.1764L94.3496 88.6333C94.7519 90.6351 96.2272 91.636 98.7754 91.636H99.9824C101.055 91.5026 101.894 90.902 102.497 89.8344C103.101 88.7667 103.268 87.6991 103 86.6314L85.9004 24.574C84.4251 19.2358 81.374 14.8651 76.7471 11.4619C72.1201 8.05876 66.9902 6.35719 61.3574 6.35719H38.625C35.8086 6.35719 34.4004 7.75848 34.4004 10.5611C34.4004 13.3637 35.8086 14.765 38.625 14.765H61.3574C64.9785 14.765 68.3314 15.9327 71.416 18.2682C74.5006 20.6037 76.5794 23.5731 77.6523 27.1764ZM4.22461 91.636H68.5996C71.5501 91.636 73.0254 90.2348 73.0254 87.4322C73.0254 84.6296 71.5501 83.2283 68.5996 83.2283H9.05273C9.85742 76.2885 12.2715 70.0494 16.2949 64.511C20.3184 58.9725 25.4818 54.802 31.7852 51.9994C34.3333 51.0652 35.071 49.1968 33.998 46.3942C32.6569 43.8585 30.7793 43.1912 28.3652 44.3924C19.6478 48.2626 12.7409 54.068 7.64453 61.8085C2.54818 69.549 0 78.0902 0 87.4322C0 90.2348 1.4082 91.636 4.22461 91.636ZM60.1504 40.3887C57.1999 40.3887 55.7246 41.8567 55.7246 44.7927C55.7246 45.9938 56.1269 46.9948 56.9316 47.7955C57.7363 48.5962 58.8092 48.9966 60.1504 48.9966H68.5996C69.9408 48.9966 71.0137 48.5962 71.8184 47.7955C72.623 46.9948 73.0254 45.9938 73.0254 44.7927C73.0254 41.8567 71.5501 40.3887 68.5996 40.3887H60.1504ZM5.63281 3.35441C3.48698 5.22281 3.48698 7.22466 5.63281 9.35996L91.332 99.0429C92.4049 99.8436 93.4108 100.244 94.3496 100.244C95.5566 100.244 96.5625 99.8436 97.3672 99.0429C99.513 96.9076 99.513 94.9057 97.3672 93.0373L11.668 3.35441C9.52213 1.2191 7.51042 1.2191 5.63281 3.35441Z" fill="#0D0D0D"/>
</g>
<defs>
<clipPath id="clip0_30_218">
<rect width="103" height="99.2918" fill="white" transform="translate(0 0.952148)"/>
</clipPath>
</defs>
</svg>
