<svg width="126" height="87" viewBox="0 0 126 87" fill="none" xmlns="http://www.w3.org/2000/svg">
<path d="M14.3687 73.3497C15.0233 77.0047 16.7825 80.0782 19.6465 82.5703C22.5104 85.0623 25.7425 86.3083 29.3429 86.3083H96.6039C100.204 86.3083 103.436 85.0623 106.3 82.5703C109.164 80.0782 110.924 77.0047 111.578 73.3497L125.816 7.56016C126.143 6.06494 125.898 4.65279 125.079 3.3237C124.261 1.99462 123.116 1.24701 121.643 1.08088C120.17 0.748608 118.779 0.997811 117.47 1.82849C116.16 2.65916 115.424 3.82211 115.26 5.31733L111.087 26.2504C110.924 25.9181 110.555 25.5443 109.983 25.129C109.41 24.7136 108.96 24.3398 108.632 24.0076C104.705 19.3558 99.9588 17.0299 94.3946 17.0299C88.8305 17.0299 84.0845 19.3558 80.1569 24.0076C77.8658 26.4996 75.6564 27.7456 73.529 27.7456C71.4015 27.7456 69.1104 26.4996 66.6556 24.0076C62.7279 19.3558 57.982 17.0299 52.4178 17.0299C46.69 17.0299 42.0259 19.3558 38.4256 24.0076C35.9708 26.4996 33.6796 27.7456 31.5522 27.7456C29.4247 27.7456 27.1335 26.4996 24.6788 24.0076C21.4057 20.3526 17.5599 18.0267 13.1413 17.0299L10.6865 5.31733C10.3592 3.98825 9.54093 2.90837 8.23171 2.07769C6.92249 1.24701 5.61327 0.914743 4.30405 1.08088C2.99484 1.24701 1.89018 2.03616 0.990096 3.44831C0.0900087 4.86046 -0.196383 6.23107 0.130922 7.56016L14.3687 73.3497ZM17.3144 31.4836C21.2421 36.1354 25.988 38.4613 31.5522 38.4613C37.1163 38.4613 41.8623 36.1354 45.7899 31.4836C48.081 28.9916 50.2903 27.7456 52.4178 27.7456C54.5453 27.7456 56.8364 28.9916 59.2912 31.4836C63.8735 36.1354 68.6194 38.4613 73.529 38.4613C79.2568 38.4613 83.9209 36.1354 87.5212 31.4836C89.976 28.9916 92.2672 27.7456 94.3946 27.7456C96.5221 27.7456 98.8132 28.9916 101.268 31.4836C104.05 34.3079 106.669 36.2185 109.123 37.2153L101.759 71.3561C101.268 74.1804 99.5497 75.5926 96.6039 75.5926H29.3429C26.3971 75.5926 24.6788 74.1804 24.1878 71.3561L15.8415 29.9884L17.3144 31.4836Z" fill="#0D0D0D"/>
<path d="M45.2128 52.9734C45.2928 50.8334 45.9928 49.1834 47.3128 48.0234C48.6328 46.8634 50.4228 46.2834 52.6828 46.2834C54.1828 46.2834 55.4628 46.5434 56.5228 47.0634C57.6028 47.5834 58.4128 48.2934 58.9528 49.1934C59.5128 50.0934 59.7928 51.1034 59.7928 52.2234C59.7928 53.5434 59.4628 54.6234 58.8028 55.4634C58.1428 56.2834 57.3728 56.8434 56.4928 57.1434V57.2634C57.6328 57.6434 58.5328 58.2734 59.1928 59.1534C59.8528 60.0334 60.1828 61.1634 60.1828 62.5434C60.1828 63.7834 59.8928 64.8834 59.3128 65.8434C58.7528 66.7834 57.9228 67.5234 56.8228 68.0634C55.7428 68.6034 54.4528 68.8734 52.9528 68.8734C50.5528 68.8734 48.6328 68.2834 47.1928 67.1034C45.7728 65.9234 45.0228 64.1434 44.9428 61.7634H49.9228C49.9428 62.6434 50.1928 63.3434 50.6728 63.8634C51.1528 64.3634 51.8528 64.6134 52.7728 64.6134C53.5528 64.6134 54.1528 64.3934 54.5728 63.9534C55.0128 63.4934 55.2328 62.8934 55.2328 62.1534C55.2328 61.1934 54.9228 60.5034 54.3028 60.0834C53.7028 59.6434 52.7328 59.4234 51.3928 59.4234H50.4328V55.2534H51.3928C52.4128 55.2534 53.2328 55.0834 53.8528 54.7434C54.4928 54.3834 54.8128 53.7534 54.8128 52.8534C54.8128 52.1334 54.6128 51.5734 54.2128 51.1734C53.8128 50.7734 53.2628 50.5734 52.5628 50.5734C51.8028 50.5734 51.2328 50.8034 50.8528 51.2634C50.4928 51.7234 50.2828 52.2934 50.2228 52.9734H45.2128ZM64.0969 57.4434C64.0969 54.0034 64.7569 51.2934 66.0769 49.3134C67.4169 47.3334 69.5669 46.3434 72.5269 46.3434C75.4869 46.3434 77.6269 47.3334 78.9469 49.3134C80.2869 51.2934 80.9569 54.0034 80.9569 57.4434C80.9569 60.9234 80.2869 63.6534 78.9469 65.6334C77.6269 67.6134 75.4869 68.6034 72.5269 68.6034C69.5669 68.6034 67.4169 67.6134 66.0769 65.6334C64.7569 63.6534 64.0969 60.9234 64.0969 57.4434ZM75.9169 57.4434C75.9169 55.4234 75.6969 53.8734 75.2569 52.7934C74.8169 51.6934 73.9069 51.1434 72.5269 51.1434C71.1469 51.1434 70.2369 51.6934 69.7969 52.7934C69.3569 53.8734 69.1369 55.4234 69.1369 57.4434C69.1369 58.8034 69.2169 59.9334 69.3769 60.8334C69.5369 61.7134 69.8569 62.4334 70.3369 62.9934C70.8369 63.5334 71.5669 63.8034 72.5269 63.8034C73.4869 63.8034 74.2069 63.5334 74.6869 62.9934C75.1869 62.4334 75.5169 61.7134 75.6769 60.8334C75.8369 59.9334 75.9169 58.8034 75.9169 57.4434Z" fill="#0D0D0D"/>
</svg>
