<svg width="339" height="230" viewBox="0 0 339 230" fill="none" xmlns="http://www.w3.org/2000/svg">
<mask id="path-1-inside-1_146_235" fill="white">
<path d="M0.388868 204.014C2.09416 175.569 9.38557 147.737 21.8468 122.109C34.308 96.4815 51.695 73.559 73.015 54.6506C94.335 35.7422 119.171 21.2183 146.104 11.9081C173.037 2.59783 201.54 -1.31639 229.986 0.388907C258.431 2.0942 286.263 9.38561 311.891 21.8468C337.518 34.308 360.441 51.695 379.349 73.0151C398.258 94.3351 412.782 119.171 422.092 146.104C431.402 173.037 435.316 201.54 433.611 229.986L432.784 229.936C434.483 201.599 430.583 173.205 421.309 146.374C412.034 119.544 397.566 94.8036 378.729 73.565C359.893 52.3264 337.058 35.0058 311.528 22.5922C285.998 10.1785 258.273 2.91497 229.936 1.21619C201.599 -0.482595 173.205 3.41667 146.374 12.6914C119.544 21.966 94.8035 36.4345 73.5649 55.2707C52.3263 74.1068 35.0057 96.9418 22.5921 122.472C10.1785 148.002 2.91493 175.727 1.21615 204.064L0.388868 204.014Z"/>
</mask>
<path d="M0.388868 204.014C2.09416 175.569 9.38557 147.737 21.8468 122.109C34.308 96.4815 51.695 73.559 73.015 54.6506C94.335 35.7422 119.171 21.2183 146.104 11.9081C173.037 2.59783 201.54 -1.31639 229.986 0.388907C258.431 2.0942 286.263 9.38561 311.891 21.8468C337.518 34.308 360.441 51.695 379.349 73.0151C398.258 94.3351 412.782 119.171 422.092 146.104C431.402 173.037 435.316 201.54 433.611 229.986L432.784 229.936C434.483 201.599 430.583 173.205 421.309 146.374C412.034 119.544 397.566 94.8036 378.729 73.565C359.893 52.3264 337.058 35.0058 311.528 22.5922C285.998 10.1785 258.273 2.91497 229.936 1.21619C201.599 -0.482595 173.205 3.41667 146.374 12.6914C119.544 21.966 94.8035 36.4345 73.5649 55.2707C52.3263 74.1068 35.0057 96.9418 22.5921 122.472C10.1785 148.002 2.91493 175.727 1.21615 204.064L0.388868 204.014Z" stroke="#F8F1E9" stroke-width="2" mask="url(#path-1-inside-1_146_235)"/>
</svg>
