<svg width="104" height="63" viewBox="0 0 104 63" fill="none" xmlns="http://www.w3.org/2000/svg">
<path d="M101.988 23.0317L96.1047 17.3332L96.0331 13.0367C96.0317 12.9061 96.0045 12.777 95.953 12.6569C95.9016 12.5369 95.827 12.4281 95.7335 12.3369L85.6418 2.57958C85.5479 2.48812 85.4369 2.41612 85.3151 2.36776C85.1933 2.3194 85.0631 2.29563 84.9321 2.29781C84.8011 2.3 84.6717 2.3281 84.5516 2.38049C84.4315 2.43288 84.3229 2.50853 84.2322 2.60307L75.4474 11.6825C75.3559 11.7763 75.2838 11.8873 75.2355 12.009C75.1871 12.1308 75.1633 12.2609 75.1655 12.3919C75.1677 12.5229 75.1958 12.6522 75.2482 12.7722C75.3006 12.8923 75.3763 13.0008 75.4708 13.0915L85.5626 22.8489C85.6568 22.9393 85.7681 23.0102 85.8898 23.0576C86.0116 23.105 86.1415 23.1278 86.2721 23.1249L90.5801 23.0531L96.4638 28.7515C97.2212 29.4839 98.2387 29.8855 99.2923 29.8679C100.346 29.8503 101.349 29.4151 102.082 28.6579C102.815 27.9007 103.216 26.8836 103.199 25.8304C103.181 24.7771 102.746 23.774 101.988 23.0416L101.988 23.0317ZM79.1155 10.7479L81.4266 12.9923L82.8127 11.5597L80.4918 9.32546L82.0438 7.72143L86.3733 11.9173L87.7593 10.4847L83.4201 6.29899L84.972 4.69496L91.6225 11.1251L84.2139 18.782L77.5635 12.3519L79.1155 10.7479ZM100.649 27.2624C100.283 27.6383 99.7834 27.8541 99.2589 27.8629C98.7344 27.8716 98.2278 27.6725 97.8497 27.3091L91.6636 21.3378C91.4497 21.1959 91.2077 21.1017 90.9541 21.0617L86.646 21.1335L85.6369 20.1578L93.0454 12.5008L94.0546 13.4766L94.1264 17.7831C94.1318 18.0434 94.2393 18.2911 94.4258 18.4729L100.602 24.4642C100.978 24.8299 101.194 25.3294 101.203 25.8537C101.212 26.378 101.012 26.8844 100.649 27.2624Z" fill="#F3134F"/>
<path d="M12.06 4.36397V17H8.982V11.798H4.194V17H1.116V4.36397H4.194V9.31397H8.982V4.36397H12.06ZM22.148 14.768H17.432L16.676 17H13.454L18.026 4.36397H21.59L26.162 17H22.904L22.148 14.768ZM21.356 12.392L19.79 7.76597L18.242 12.392H21.356ZM38.8575 17H35.7795L30.6315 9.20597V17H27.5535V4.36397H30.6315L35.7795 12.194V4.36397H38.8575V17ZM45.8227 4.36397C47.1547 4.36397 48.3187 4.62797 49.3147 5.15597C50.3107 5.68397 51.0787 6.42797 51.6187 7.38797C52.1707 8.33597 52.4467 9.43397 52.4467 10.682C52.4467 11.918 52.1707 13.016 51.6187 13.976C51.0787 14.936 50.3047 15.68 49.2967 16.208C48.3007 16.736 47.1427 17 45.8227 17H41.0887V4.36397H45.8227ZM45.6247 14.336C46.7887 14.336 47.6947 14.018 48.3427 13.382C48.9907 12.746 49.3147 11.846 49.3147 10.682C49.3147 9.51797 48.9907 8.61197 48.3427 7.96397C47.6947 7.31597 46.7887 6.99197 45.6247 6.99197H44.1667V14.336H45.6247ZM10.746 29.432C10.746 30.164 10.578 30.836 10.242 31.448C9.906 32.048 9.39 32.534 8.694 32.906C7.998 33.278 7.134 33.464 6.102 33.464H4.194V38H1.116V25.364H6.102C7.11 25.364 7.962 25.538 8.658 25.886C9.354 26.234 9.876 26.714 10.224 27.326C10.572 27.938 10.746 28.64 10.746 29.432ZM5.868 31.016C6.456 31.016 6.894 30.878 7.182 30.602C7.47 30.326 7.614 29.936 7.614 29.432C7.614 28.928 7.47 28.538 7.182 28.262C6.894 27.986 6.456 27.848 5.868 27.848H4.194V31.016H5.868ZM20.2144 35.768H15.4984L14.7424 38H11.5204L16.0924 25.364H19.6564L24.2284 38H20.9704L20.2144 35.768ZM19.4224 33.392L17.8564 28.766L16.3084 33.392H19.4224ZM28.6979 25.364V38H25.6199V25.364H28.6979ZM42.2325 38H39.1545L34.0065 30.206V38H30.9285V25.364H34.0065L39.1545 33.194V25.364H42.2325V38ZM53.5537 25.364V27.83H50.2057V38H47.1277V27.83H43.7797V25.364H53.5537ZM58.1764 27.83V30.386H62.2984V32.762H58.1764V35.534H62.8384V38H55.0984V25.364H62.8384V27.83H58.1764ZM69.5707 25.364C70.9027 25.364 72.0667 25.628 73.0627 26.156C74.0587 26.684 74.8267 27.428 75.3667 28.388C75.9187 29.336 76.1947 30.434 76.1947 31.682C76.1947 32.918 75.9187 34.016 75.3667 34.976C74.8267 35.936 74.0527 36.68 73.0447 37.208C72.0487 37.736 70.8907 38 69.5707 38H64.8367V25.364H69.5707ZM69.3727 35.336C70.5367 35.336 71.4427 35.018 72.0907 34.382C72.7387 33.746 73.0627 32.846 73.0627 31.682C73.0627 30.518 72.7387 29.612 72.0907 28.964C71.4427 28.316 70.5367 27.992 69.3727 27.992H67.9147V35.336H69.3727ZM0.594 52.664C0.594 51.416 0.864 50.306 1.404 49.334C1.944 48.35 2.694 47.588 3.654 47.048C4.626 46.496 5.724 46.22 6.948 46.22C8.448 46.22 9.732 46.616 10.8 47.408C11.868 48.2 12.582 49.28 12.942 50.648H9.558C9.306 50.12 8.946 49.718 8.478 49.442C8.022 49.166 7.5 49.028 6.912 49.028C5.964 49.028 5.196 49.358 4.608 50.018C4.02 50.678 3.726 51.56 3.726 52.664C3.726 53.768 4.02 54.65 4.608 55.31C5.196 55.97 5.964 56.3 6.912 56.3C7.5 56.3 8.022 56.162 8.478 55.886C8.946 55.61 9.306 55.208 9.558 54.68H12.942C12.582 56.048 11.868 57.128 10.8 57.92C9.732 58.7 8.448 59.09 6.948 59.09C5.724 59.09 4.626 58.82 3.654 58.28C2.694 57.728 1.944 56.966 1.404 55.994C0.864 55.022 0.594 53.912 0.594 52.664ZM17.9049 56.624H21.9369V59H14.8269V46.364H17.9049V56.624ZM29.3811 59.126C28.1931 59.126 27.1011 58.85 26.1051 58.298C25.1211 57.746 24.3351 56.978 23.7471 55.994C23.1711 54.998 22.8831 53.882 22.8831 52.646C22.8831 51.41 23.1711 50.3 23.7471 49.316C24.3351 48.332 25.1211 47.564 26.1051 47.012C27.1011 46.46 28.1931 46.184 29.3811 46.184C30.5691 46.184 31.6551 46.46 32.6391 47.012C33.6351 47.564 34.4151 48.332 34.9791 49.316C35.5551 50.3 35.8431 51.41 35.8431 52.646C35.8431 53.882 35.5551 54.998 34.9791 55.994C34.4031 56.978 33.6231 57.746 32.6391 58.298C31.6551 58.85 30.5691 59.126 29.3811 59.126ZM29.3811 56.318C30.3891 56.318 31.1931 55.982 31.7931 55.31C32.4051 54.638 32.7111 53.75 32.7111 52.646C32.7111 51.53 32.4051 50.642 31.7931 49.982C31.1931 49.31 30.3891 48.974 29.3811 48.974C28.3611 48.974 27.5451 49.304 26.9331 49.964C26.3331 50.624 26.0331 51.518 26.0331 52.646C26.0331 53.762 26.3331 54.656 26.9331 55.328C27.5451 55.988 28.3611 56.318 29.3811 56.318ZM46.6455 46.364V48.83H43.2975V59H40.2195V48.83H36.8715V46.364H46.6455ZM59.1342 46.364V59H56.0562V53.798H51.2682V59H48.1902V46.364H51.2682V51.314H56.0562V46.364H59.1342ZM64.4342 46.364V59H61.3562V46.364H64.4342ZM77.9688 59H74.8908L69.7428 51.206V59H66.6648V46.364H69.7428L74.8908 54.194V46.364H77.9688V59ZM88.588 50.36C88.36 49.94 88.03 49.622 87.598 49.406C87.178 49.178 86.68 49.064 86.104 49.064C85.108 49.064 84.31 49.394 83.71 50.054C83.11 50.702 82.81 51.572 82.81 52.664C82.81 53.828 83.122 54.74 83.746 55.4C84.382 56.048 85.252 56.372 86.356 56.372C87.112 56.372 87.748 56.18 88.264 55.796C88.792 55.412 89.176 54.86 89.416 54.14H85.51V51.872H92.206V54.734C91.978 55.502 91.588 56.216 91.036 56.876C90.496 57.536 89.806 58.07 88.966 58.478C88.126 58.886 87.178 59.09 86.122 59.09C84.874 59.09 83.758 58.82 82.774 58.28C81.802 57.728 81.04 56.966 80.488 55.994C79.948 55.022 79.678 53.912 79.678 52.664C79.678 51.416 79.948 50.306 80.488 49.334C81.04 48.35 81.802 47.588 82.774 47.048C83.746 46.496 84.856 46.22 86.104 46.22C87.616 46.22 88.888 46.586 89.92 47.318C90.964 48.05 91.654 49.064 91.99 50.36H88.588Z" fill="#F3134F"/>
</svg>
