<svg width="16" height="16" viewBox="0 0 16 16" fill="none" xmlns="http://www.w3.org/2000/svg">
<path d="M15.207 5.28438L10.496 4.59971L8.39003 0.33028C8.33251 0.213386 8.23788 0.118757 8.12099 0.0612373C7.82782 -0.0834892 7.47157 0.0371163 7.32499 0.33028L5.21903 4.59971L0.507998 5.28438C0.378116 5.30294 0.259366 5.36417 0.168448 5.45694C0.0585328 5.56991 -0.00203528 5.7219 5.22239e-05 5.87951C0.00213973 6.03711 0.066712 6.18745 0.17958 6.29747L3.58808 9.62061L2.7828 14.3131C2.76392 14.4222 2.776 14.5345 2.81767 14.6372C2.85934 14.7398 2.92894 14.8287 3.01857 14.8938C3.10821 14.9589 3.21429 14.9976 3.32478 15.0055C3.43528 15.0133 3.54578 14.9901 3.64374 14.9384L7.85751 12.723L12.0713 14.9384C12.1863 14.9996 12.3199 15.02 12.4479 14.9978C12.7708 14.9421 12.9879 14.6359 12.9322 14.3131L12.1269 9.62061L15.5354 6.29747C15.6282 6.20655 15.6894 6.0878 15.708 5.95792C15.7581 5.63321 15.5317 5.33262 15.207 5.28438Z" fill="#F8F1E9"/>
</svg>
