<svg width="57" height="75" viewBox="0 0 57 75" fill="none" xmlns="http://www.w3.org/2000/svg">
<rect width="57" height="57" rx="7" fill="#F8F1E9"/>
<path d="M7.76375 64.333V65.147H5.67375V72H4.67275V65.147H2.57175V64.333H7.76375ZM14.4959 68.755C14.4959 68.9457 14.4849 69.1473 14.4629 69.36H9.64493C9.68159 69.954 9.88326 70.4197 10.2499 70.757C10.6239 71.087 11.0749 71.252 11.6029 71.252C12.0356 71.252 12.3949 71.153 12.6809 70.955C12.9743 70.7497 13.1796 70.4783 13.2969 70.141H14.3749C14.2136 70.7203 13.8909 71.1933 13.4069 71.56C12.9229 71.9193 12.3216 72.099 11.6029 72.099C11.0309 72.099 10.5176 71.9707 10.0629 71.714C9.61559 71.4573 9.26359 71.0943 9.00693 70.625C8.75026 70.1483 8.62193 69.5983 8.62193 68.975C8.62193 68.3517 8.74659 67.8053 8.99593 67.336C9.24526 66.8667 9.59359 66.5073 10.0409 66.258C10.4956 66.0013 11.0163 65.873 11.6029 65.873C12.1749 65.873 12.6809 65.9977 13.1209 66.247C13.5609 66.4963 13.8983 66.841 14.1329 67.281C14.3749 67.7137 14.4959 68.205 14.4959 68.755ZM13.4619 68.546C13.4619 68.1647 13.3776 67.8383 13.2089 67.567C13.0403 67.2883 12.8093 67.0793 12.5159 66.94C12.2299 66.7933 11.9109 66.72 11.5589 66.72C11.0529 66.72 10.6203 66.8813 10.2609 67.204C9.90893 67.5267 9.70726 67.974 9.65593 68.546H13.4619ZM16.8182 63.86V72H15.8172V63.86H16.8182ZM24.0242 68.755C24.0242 68.9457 24.0132 69.1473 23.9912 69.36H19.1732C19.2099 69.954 19.4116 70.4197 19.7782 70.757C20.1522 71.087 20.6032 71.252 21.1312 71.252C21.5639 71.252 21.9232 71.153 22.2092 70.955C22.5026 70.7497 22.7079 70.4783 22.8252 70.141H23.9032C23.7419 70.7203 23.4192 71.1933 22.9352 71.56C22.4512 71.9193 21.8499 72.099 21.1312 72.099C20.5592 72.099 20.0459 71.9707 19.5912 71.714C19.1439 71.4573 18.7919 71.0943 18.5352 70.625C18.2786 70.1483 18.1502 69.5983 18.1502 68.975C18.1502 68.3517 18.2749 67.8053 18.5242 67.336C18.7736 66.8667 19.1219 66.5073 19.5692 66.258C20.0239 66.0013 20.5446 65.873 21.1312 65.873C21.7032 65.873 22.2092 65.9977 22.6492 66.247C23.0892 66.4963 23.4266 66.841 23.6612 67.281C23.9032 67.7137 24.0242 68.205 24.0242 68.755ZM22.9902 68.546C22.9902 68.1647 22.9059 67.8383 22.7372 67.567C22.5686 67.2883 22.3376 67.0793 22.0442 66.94C21.7582 66.7933 21.4392 66.72 21.0872 66.72C20.5812 66.72 20.1486 66.8813 19.7892 67.204C19.4372 67.5267 19.2356 67.974 19.1842 68.546H22.9902ZM27.8315 65.873C28.3522 65.873 28.8069 65.9867 29.1955 66.214C29.5915 66.4413 29.8849 66.7273 30.0755 67.072V65.972H31.0875V72.132C31.0875 72.682 30.9702 73.1697 30.7355 73.595C30.5009 74.0277 30.1635 74.365 29.7235 74.607C29.2909 74.849 28.7849 74.97 28.2055 74.97C27.4135 74.97 26.7535 74.783 26.2255 74.409C25.6975 74.035 25.3859 73.5253 25.2905 72.88H26.2805C26.3905 73.2467 26.6179 73.54 26.9625 73.76C27.3072 73.9873 27.7215 74.101 28.2055 74.101C28.7555 74.101 29.2029 73.9287 29.5475 73.584C29.8995 73.2393 30.0755 72.7553 30.0755 72.132V70.867C29.8775 71.219 29.5842 71.5123 29.1955 71.747C28.8069 71.9817 28.3522 72.099 27.8315 72.099C27.2962 72.099 26.8085 71.967 26.3685 71.703C25.9359 71.439 25.5949 71.0687 25.3455 70.592C25.0962 70.1153 24.9715 69.5727 24.9715 68.964C24.9715 68.348 25.0962 67.809 25.3455 67.347C25.5949 66.8777 25.9359 66.5147 26.3685 66.258C26.8085 66.0013 27.2962 65.873 27.8315 65.873ZM30.0755 68.975C30.0755 68.5203 29.9839 68.1243 29.8005 67.787C29.6172 67.4497 29.3679 67.193 29.0525 67.017C28.7445 66.8337 28.4035 66.742 28.0295 66.742C27.6555 66.742 27.3145 66.83 27.0065 67.006C26.6985 67.182 26.4529 67.4387 26.2695 67.776C26.0862 68.1133 25.9945 68.5093 25.9945 68.964C25.9945 69.426 26.0862 69.8293 26.2695 70.174C26.4529 70.5113 26.6985 70.7717 27.0065 70.955C27.3145 71.131 27.6555 71.219 28.0295 71.219C28.4035 71.219 28.7445 71.131 29.0525 70.955C29.3679 70.7717 29.6172 70.5113 29.8005 70.174C29.9839 69.8293 30.0755 69.4297 30.0755 68.975ZM33.7801 66.951C33.9561 66.6063 34.2055 66.3387 34.5281 66.148C34.8581 65.9573 35.2578 65.862 35.7271 65.862V66.896H35.4631C34.3411 66.896 33.7801 67.5047 33.7801 68.722V72H32.7791V65.972H33.7801V66.951ZM36.5086 68.964C36.5086 68.348 36.6333 67.809 36.8826 67.347C37.132 66.8777 37.473 66.5147 37.9056 66.258C38.3456 66.0013 38.8333 65.873 39.3686 65.873C39.8966 65.873 40.355 65.9867 40.7436 66.214C41.1323 66.4413 41.422 66.7273 41.6126 67.072V65.972H42.6246V72H41.6126V70.878C41.4146 71.23 41.1176 71.5233 40.7216 71.758C40.333 71.9853 39.8783 72.099 39.3576 72.099C38.8223 72.099 38.3383 71.967 37.9056 71.703C37.473 71.439 37.132 71.0687 36.8826 70.592C36.6333 70.1153 36.5086 69.5727 36.5086 68.964ZM41.6126 68.975C41.6126 68.5203 41.521 68.1243 41.3376 67.787C41.1543 67.4497 40.905 67.193 40.5896 67.017C40.2816 66.8337 39.9406 66.742 39.5666 66.742C39.1926 66.742 38.8516 66.83 38.5436 67.006C38.2356 67.182 37.99 67.4387 37.8066 67.776C37.6233 68.1133 37.5316 68.5093 37.5316 68.964C37.5316 69.426 37.6233 69.8293 37.8066 70.174C37.99 70.5113 38.2356 70.7717 38.5436 70.955C38.8516 71.131 39.1926 71.219 39.5666 71.219C39.9406 71.219 40.2816 71.131 40.5896 70.955C40.905 70.7717 41.1543 70.5113 41.3376 70.174C41.521 69.8293 41.6126 69.4297 41.6126 68.975ZM51.5652 65.862C52.0346 65.862 52.4526 65.961 52.8192 66.159C53.1859 66.3497 53.4756 66.6393 53.6882 67.028C53.9009 67.4167 54.0072 67.8897 54.0072 68.447V72H53.0172V68.59C53.0172 67.9887 52.8669 67.5303 52.5662 67.215C52.2729 66.8923 51.8732 66.731 51.3672 66.731C50.8466 66.731 50.4322 66.8997 50.1242 67.237C49.8162 67.567 49.6622 68.0473 49.6622 68.678V72H48.6722V68.59C48.6722 67.9887 48.5219 67.5303 48.2212 67.215C47.9279 66.8923 47.5282 66.731 47.0222 66.731C46.5016 66.731 46.0872 66.8997 45.7792 67.237C45.4712 67.567 45.3172 68.0473 45.3172 68.678V72H44.3162V65.972H45.3172V66.841C45.5152 66.5257 45.7792 66.2837 46.1092 66.115C46.4466 65.9463 46.8169 65.862 47.2202 65.862C47.7262 65.862 48.1736 65.9757 48.5622 66.203C48.9509 66.4303 49.2406 66.764 49.4312 67.204C49.5999 66.7787 49.8786 66.4487 50.2672 66.214C50.6559 65.9793 51.0886 65.862 51.5652 65.862Z" fill="#F8F1E9"/>
<path fill-rule="evenodd" clip-rule="evenodd" d="M47 28.5C47 38.7166 38.7166 47 28.5 47C18.2834 47 10 38.7166 10 28.5C10 18.2834 18.2834 10 28.5 10C38.7166 10 47 18.2834 47 28.5ZM29.1629 23.6576C27.3638 24.4053 23.7671 25.9547 18.3743 28.3042C17.4987 28.6526 17.0392 28.9933 16.9976 29.3263C16.9267 29.8906 17.6328 30.1126 18.5917 30.4132C18.7227 30.4548 18.8584 30.4965 18.9972 30.5427C19.9422 30.8495 21.2125 31.2087 21.8724 31.2226C22.4721 31.2349 23.1412 30.9883 23.8796 30.4826C28.9178 27.0801 31.5186 25.3612 31.682 25.3242C31.7976 25.298 31.958 25.264 32.0659 25.3612C32.1738 25.4567 32.163 25.6387 32.1522 25.688C32.0813 25.9855 29.3155 28.5586 27.8818 29.8906C27.4347 30.3053 27.1187 30.5998 27.0539 30.6676C26.909 30.8171 26.761 30.9605 26.6192 31.0977C25.7404 31.9425 25.0837 32.5777 26.6562 33.6137C27.4116 34.1117 28.0159 34.5233 28.6187 34.9334C29.277 35.382 29.9338 35.8291 30.7847 36.3872C31.0006 36.529 31.2072 36.6755 31.4091 36.8188C32.1753 37.3661 32.8645 37.8564 33.7155 37.7793C34.2088 37.733 34.7206 37.269 34.9796 35.883C35.5917 32.6055 36.7972 25.5076 37.0763 22.5815C37.0933 22.3386 37.0829 22.0945 37.0455 21.8539C37.023 21.6595 36.9284 21.4807 36.7803 21.3528C36.5598 21.1725 36.2176 21.1339 36.0634 21.137C35.3681 21.1493 34.3013 21.5209 29.1629 23.6576Z" fill="#F22E9A"/>
</svg>
