<svg width="57" height="57" viewBox="0 0 57 57" fill="none" xmlns="http://www.w3.org/2000/svg">
<rect width="57" height="57" rx="7" fill="#F8F1E9"/>
<path fill-rule="evenodd" clip-rule="evenodd" d="M47 28.5C47 38.7166 38.7166 47 28.5 47C18.2834 47 10 38.7166 10 28.5C10 18.2834 18.2834 10 28.5 10C38.7166 10 47 18.2834 47 28.5ZM29.1629 23.6576C27.3638 24.4053 23.7671 25.9547 18.3743 28.3042C17.4987 28.6526 17.0392 28.9933 16.9976 29.3263C16.9267 29.8906 17.6328 30.1126 18.5917 30.4132C18.7227 30.4548 18.8584 30.4965 18.9972 30.5427C19.9422 30.8495 21.2125 31.2087 21.8724 31.2226C22.4721 31.2349 23.1412 30.9882 23.8796 30.4826C28.9178 27.0801 31.5186 25.3612 31.682 25.3242C31.7976 25.298 31.958 25.264 32.0659 25.3612C32.1738 25.4567 32.163 25.6387 32.1522 25.688C32.0813 25.9855 29.3155 28.5586 27.8818 29.8906C27.4347 30.3053 27.1187 30.5997 27.0539 30.6676C26.909 30.8171 26.761 30.9605 26.6192 31.0977C25.7404 31.9425 25.0837 32.5777 26.6562 33.6137C27.4116 34.1117 28.0159 34.5233 28.6187 34.9334C29.277 35.382 29.9338 35.8291 30.7848 36.3872C31.0006 36.529 31.2072 36.6755 31.4091 36.8188C32.1753 37.3661 32.8645 37.8564 33.7155 37.7793C34.2088 37.733 34.7206 37.269 34.9796 35.883C35.5917 32.6055 36.7972 25.5076 37.0763 22.5815C37.0933 22.3386 37.0829 22.0945 37.0455 21.8539C37.023 21.6595 36.9284 21.4807 36.7803 21.3528C36.5598 21.1725 36.2176 21.1339 36.0634 21.137C35.3681 21.1493 34.3013 21.5209 29.1629 23.6576V23.6576Z" fill="#F22E9A"/>
</svg>
