<svg width="57" height="57" viewBox="0 0 57 57" fill="none" xmlns="http://www.w3.org/2000/svg">
<rect width="57" height="57" rx="7" fill="#F8F1E9"/>
<g clip-path="url(#clip0_20_165)">
<path d="M41.8728 13.6033C40.955 12.7578 37.2405 10.0623 28.9589 10.0262C28.9589 10.0262 19.1958 9.44083 14.4407 13.8057C11.7958 16.4506 10.8636 20.3313 10.7624 25.1369C10.6612 29.9426 10.5384 38.9469 19.2175 41.3895H19.2247L19.2175 45.1184C19.2175 45.1184 19.1597 46.6287 20.157 46.9322C21.3566 47.308 22.0648 46.159 23.2138 44.9232C23.8425 44.244 24.7097 43.2467 25.3673 42.4879C31.3075 42.9865 35.8675 41.8447 36.3878 41.6785C37.5874 41.2883 44.3732 40.4211 45.4716 31.4168C46.6134 22.1234 44.9224 16.2555 41.8728 13.6033V13.6033ZM42.8773 30.7375C41.945 38.2531 36.4456 38.7301 35.4339 39.0553C35.0003 39.1926 30.9896 40.1899 25.9527 39.8647C25.9527 39.8647 22.1948 44.3957 21.0241 45.5736C20.6411 45.9566 20.222 45.9205 20.2292 45.1617C20.2292 44.6631 20.2581 38.9686 20.2581 38.9686C20.2509 38.9686 20.2509 38.9686 20.2581 38.9686C12.9015 36.9307 13.3351 29.2633 13.4146 25.2525C13.4941 21.2418 14.2528 17.9537 16.4931 15.7424C20.5183 12.093 28.8071 12.635 28.8071 12.635C35.8097 12.6639 39.1628 14.774 39.9433 15.4822C42.5232 17.6936 43.8384 22.9834 42.8773 30.7375V30.7375ZM32.8323 24.8984C32.8612 25.5199 31.929 25.5633 31.9001 24.9418C31.8206 23.352 31.0763 22.5787 29.5443 22.492C28.9228 22.4559 28.9806 21.5236 29.5948 21.5598C31.6111 21.6682 32.7312 22.8244 32.8323 24.8984ZM34.2993 25.715C34.3716 22.651 32.4566 20.2518 28.8216 19.9844C28.2073 19.941 28.2724 19.0088 28.8866 19.0522C33.078 19.3557 35.3111 22.2391 35.2316 25.7367C35.2243 26.3582 34.2849 26.3293 34.2993 25.715V25.715ZM37.6958 26.6834C37.703 27.3049 36.7636 27.3121 36.7636 26.6906C36.7202 20.801 32.7962 17.5924 28.0339 17.5563C27.4196 17.549 27.4196 16.624 28.0339 16.624C33.3599 16.6602 37.6452 20.3385 37.6958 26.6834V26.6834ZM36.8792 33.7727V33.7871C36.0987 35.1602 34.639 36.6777 33.1359 36.1936L33.1214 36.1719C31.5966 35.7455 28.005 33.8955 25.7359 32.0889C24.5652 31.1639 23.4956 30.0727 22.6718 29.0248C21.9275 28.0926 21.1759 26.9869 20.446 25.6572C18.9068 22.875 18.5671 21.632 18.5671 21.632C18.0829 20.1289 19.5933 18.6691 20.9736 17.8887H20.988C21.6528 17.5418 22.2888 17.6574 22.7152 18.1705C22.7152 18.1705 23.6112 19.24 23.9943 19.7676C24.3556 20.259 24.8398 21.0467 25.0927 21.4875C25.5335 22.2752 25.2589 23.0774 24.8253 23.4098L23.9581 24.1035C23.5173 24.4576 23.5751 25.1152 23.5751 25.1152C23.5751 25.1152 24.8614 29.9787 29.6671 31.2072C29.6671 31.2072 30.3247 31.265 30.6788 30.8242L31.3726 29.957C31.705 29.5234 32.5071 29.2488 33.2948 29.6897C34.3571 30.2895 35.7085 31.2217 36.6046 32.0672C37.1105 32.4791 37.2261 33.1078 36.8792 33.7727Z" fill="#F22E9A"/>
</g>
<defs>
<clipPath id="clip0_20_165">
<rect width="37" height="37" fill="white" transform="translate(10 10)"/>
</clipPath>
</defs>
</svg>
