<svg width="57" height="57" viewBox="0 0 57 57" fill="none" xmlns="http://www.w3.org/2000/svg">
<rect width="57" height="57" rx="7" fill="#F8F1E9"/>
<g clip-path="url(#clip0_20_145)">
<path fill-rule="evenodd" clip-rule="evenodd" d="M39.9609 32.2219C39.4953 31.9891 37.2125 30.8672 36.7875 30.711C36.3625 30.5563 36.0531 30.4797 35.7422 30.9454C35.4328 31.4079 34.5438 32.4547 34.2734 32.7641C34.0016 33.0751 33.7313 33.1126 33.2672 32.8813C32.8031 32.6469 31.3063 32.1579 29.5328 30.5766C28.1531 29.3454 27.2203 27.8251 26.95 27.3594C26.6797 26.8954 26.9203 26.6438 27.1531 26.4126C27.3625 26.2047 27.6172 25.8704 27.85 25.6001C28.0828 25.3282 28.1594 25.1344 28.3141 24.8235C28.4703 24.5141 28.3922 24.2438 28.275 24.011C28.1594 23.7782 27.2313 21.4923 26.8438 20.5626C26.4672 19.6579 26.0844 19.7813 25.8 19.7657C25.5281 19.7532 25.2188 19.7501 24.9094 19.7501C24.6 19.7501 24.0969 19.8657 23.6719 20.3313C23.2453 20.7954 22.0469 21.9188 22.0469 24.2048C22.0469 26.4891 23.7094 28.6969 23.9422 29.0079C24.175 29.3172 27.2156 34.0079 31.8734 36.0188C32.9828 36.4969 33.8469 36.7829 34.5203 36.9954C35.6328 37.3501 36.6453 37.3001 37.4453 37.1797C38.3359 37.0469 40.1922 36.0563 40.5797 34.9719C40.9656 33.8876 40.9656 32.9579 40.85 32.7641C40.7344 32.5704 40.425 32.4547 39.9594 32.2219H39.9609ZM31.4891 43.7891H31.4828C28.7163 43.7896 26.0006 43.0459 23.6203 41.636L23.0578 41.3016L17.2109 42.836L18.7719 37.136L18.4047 36.5516C16.858 34.0897 16.0395 31.2403 16.0438 28.3329C16.0469 19.8173 22.975 12.8891 31.4953 12.8891C35.6203 12.8891 39.4984 14.4985 42.4141 17.4173C43.8522 18.8494 44.992 20.5525 45.7676 22.428C46.5433 24.3035 46.9393 26.3142 46.9328 28.3438C46.9297 36.8594 40.0016 43.7891 31.4891 43.7891V43.7891ZM44.6328 15.2001C42.9112 13.4671 40.8629 12.0931 38.6064 11.1576C36.3499 10.222 33.9302 9.74363 31.4875 9.75006C21.2469 9.75006 12.9094 18.086 12.9063 28.3313C12.9015 31.5919 13.7568 34.796 15.3859 37.6204L12.75 47.2501L22.6 44.6657C25.3248 46.1502 28.3783 46.9281 31.4813 46.9282H31.4891C41.7297 46.9282 50.0672 38.5922 50.0703 28.3454C50.0779 25.9036 49.6012 23.4846 48.6679 21.2282C47.7345 18.9719 46.3631 16.923 44.6328 15.2001" fill="#F22E9A"/>
</g>
<defs>
<clipPath id="clip0_20_145">
<rect width="37.5" height="37.5" fill="white" transform="translate(12.75 9.75)"/>
</clipPath>
</defs>
</svg>
